<svg version="1.1" id="Layer_1" xmlns="http://www.w3.org/2000/svg" xmlns:xlink="http://www.w3.org/1999/xlink" x="0" y="0" viewBox="-74 36.4 400 209.6" xml:space="preserve"><style>.st3{fill:#333}</style><g id="XMLID_2_"><g id="XMLID_5_"><linearGradient id="XMLID_4_" gradientUnits="userSpaceOnUse" x1="67.724" y1="296.49" x2="180.243" y2="3.367" gradientTransform="matrix(1 0 0 -1 0 284.8)"><stop offset=".333" stop-color="#050505"/><stop offset=".452" stop-color="#666"/><stop offset=".495"/></linearGradient><path id="XMLID_6_" d="M305.4 36.4H-57c-1.7 0-3 1.4-3 3.1v192.7h368.5V39.5c0-1.7-1.4-3.1-3.1-3.1z" fill="url(#XMLID_4_)"/><g id="XMLID_7_"><linearGradient id="XMLID_16_" gradientUnits="userSpaceOnUse" x1="123.568" y1="245.547" x2="124.846" y2="242.218" gradientTransform="matrix(1 0 0 -1 0 284.8)"><stop offset=".333" stop-color="#333"/><stop offset=".452" stop-color="gray"/><stop offset=".495" stop-color="#666"/></linearGradient><circle id="XMLID_8_" cx="124.2" cy="40.9" r="1.8" fill="url(#XMLID_16_)"/><circle id="XMLID_9_" cx="124.2" cy="40.9" r="1.4"/><circle id="XMLID_10_" cx="124.6" cy="40.5" r=".2" fill="#666"/></g><path id="XMLID_11_" class="st3" d="M321.4 243.2H-69.4c-2.5 0-4.6-2.1-4.6-4.6V233c0-.4.3-.8.8-.8h398.5c.4 0 .8.3.8.8v5.6c-.1 2.5-2.2 4.6-4.7 4.6z"/><path id="XMLID_12_" d="M320.4 246H-68.4c-.8 0-1.5-.7-1.5-1.5v-1.4h391.8v1.4c0 .9-.7 1.5-1.5 1.5z" fill="#4d4d4d"/><linearGradient id="XMLID_17_" gradientUnits="userSpaceOnUse" x1="103.253" y1="110.929" x2="149.003" y2="-8.255" gradientTransform="matrix(1 0 0 -1 0 284.8)"><stop offset=".333" stop-color="#242424"/><stop offset=".452" stop-color="#666"/><stop offset=".559" stop-color="#1c1c1c"/></linearGradient><path id="XMLID_13_" d="M299.2 235.3H-47.2c-.8 0-1.5-.7-1.5-1.5v-1.6h349.4v1.6c0 .8-.7 1.5-1.5 1.5z" fill="url(#XMLID_17_)"/><path id="XMLID_14_" class="st3" d="M303.8 44.8H-55.3c-.8 0-1.5.7-1.5 1.5v178.3c0 .8.7 1.5 1.5 1.5h359.1c.8 0 1.5-.7 1.5-1.5V46.3c0-.8-.7-1.5-1.5-1.5z"/><g id="XMLID_15_"><g id="XMLID_142_"><g id="XMLID_143_"><defs><path id="SVGID_1_" d="M303.8 44.8H-55.3c-.8 0-1.5.7-1.5 1.5v178.3c0 .8.7 1.5 1.5 1.5h359.1c.8 0 1.5-.7 1.5-1.5V46.3c0-.8-.7-1.5-1.5-1.5z"/></defs><clipPath id="SVGID_2_"><use xlink:href="#SVGID_1_" overflow="visible"/></clipPath><g clip-path="url(#SVGID_2_)"><image width="150%" id="XMLID_145_" xlink:href="www/images/704E761C.jpg" transform="translate(-66.852 43.433) scale(.6252)" overflow="visible"/></g></g></g></g><path id="XMLID_18_" d="M242.6 50.1c1-1.7 1.4-3.4 1.6-5.3h-301v187.4H34c81.8-43.7 159.8-99.3 208.6-182.1z" opacity=".07"/></g></g></svg>