<?xml version="1.0" encoding="utf-8"?>
<!-- Generator: Adobe Illustrator 19.0.0, SVG Export Plug-In . SVG Version: 6.00 Build 0)  -->
<svg version="1.1" id="Layer_1" xmlns="http://www.w3.org/2000/svg" xmlns:xlink="http://www.w3.org/1999/xlink" x="0px" y="0px"
	 viewBox="-74 36.4 400 209.6" style="enable-background:new -74 36.4 400 209.6;" xml:space="preserve">
<style type="text/css">
	.st0{fill:url(#XMLID_4_);}
	.st1{fill:url(#XMLID_16_);}
	.st2{fill:#666666;}
	.st3{fill:#333333;}
	.st4{fill:#4D4D4D;}
	.st5{fill:url(#XMLID_17_);}
	.st6{clip-path:url(#SVGID_2_);}
	.st7{opacity:7.000000e-002;enable-background:new    ;}
</style>
<g id="XMLID_2_">
	<g id="XMLID_5_">

			<linearGradient id="XMLID_4_" gradientUnits="userSpaceOnUse" x1="67.7237" y1="296.4901" x2="180.2432" y2="3.3668" gradientTransform="matrix(1 0 0 -1 0 284.8)">
			<stop  offset="0.3333" style="stop-color:#050505"/>
			<stop  offset="0.4516" style="stop-color:#666666"/>
			<stop  offset="0.4946" style="stop-color:#000000"/>
		</linearGradient>
		<path id="XMLID_6_" class="st0" d="M305.4,36.4H-57c-1.7,0-3,1.4-3,3.1v192.7h368.5V39.5C308.5,37.8,307.1,36.4,305.4,36.4z"/>
		<g id="XMLID_7_">

				<linearGradient id="XMLID_16_" gradientUnits="userSpaceOnUse" x1="123.5678" y1="245.547" x2="124.8458" y2="242.2177" gradientTransform="matrix(1 0 0 -1 0 284.8)">
				<stop  offset="0.3333" style="stop-color:#333333"/>
				<stop  offset="0.4516" style="stop-color:#808080"/>
				<stop  offset="0.4946" style="stop-color:#666666"/>
			</linearGradient>
			<circle id="XMLID_8_" class="st1" cx="124.2" cy="40.9" r="1.8"/>
			<circle id="XMLID_9_" cx="124.2" cy="40.9" r="1.4"/>
			<circle id="XMLID_10_" class="st2" cx="124.6" cy="40.5" r="0.2"/>
		</g>
		<path id="XMLID_11_" class="st3" d="M321.4,243.2H-69.4c-2.5,0-4.6-2.1-4.6-4.6V233c0-0.4,0.3-0.8,0.8-0.8h398.5
			c0.4,0,0.8,0.3,0.8,0.8v5.6C326,241.1,323.9,243.2,321.4,243.2z"/>
		<path id="XMLID_12_" class="st4" d="M320.4,246H-68.4c-0.8,0-1.5-0.7-1.5-1.5v-1.4h391.8v1.4C321.9,245.4,321.2,246,320.4,246z"/>

			<linearGradient id="XMLID_17_" gradientUnits="userSpaceOnUse" x1="103.2527" y1="110.9292" x2="149.0031" y2="-8.2546" gradientTransform="matrix(1 0 0 -1 0 284.8)">
			<stop  offset="0.3333" style="stop-color:#242424"/>
			<stop  offset="0.4516" style="stop-color:#666666"/>
			<stop  offset="0.5591" style="stop-color:#1C1C1C"/>
		</linearGradient>
		<path id="XMLID_13_" class="st5" d="M299.2,235.3H-47.2c-0.8,0-1.5-0.7-1.5-1.5v-1.6h349.4v1.6C300.7,234.6,300,235.3,299.2,235.3
			z"/>
		<path id="XMLID_14_" class="st3" d="M303.8,44.8H-55.3c-0.8,0-1.5,0.7-1.5,1.5v178.3c0,0.8,0.7,1.5,1.5,1.5h359.1
			c0.8,0,1.5-0.7,1.5-1.5V46.3C305.3,45.5,304.6,44.8,303.8,44.8z"/>
		<g id="XMLID_15_">
			<g id="XMLID_142_">
				<g id="XMLID_143_">
					<g>
						<defs>
							<path id="SVGID_1_" d="M303.8,44.8H-55.3c-0.8,0-1.5,0.7-1.5,1.5v178.3c0,0.8,0.7,1.5,1.5,1.5h359.1c0.8,0,1.5-0.7,1.5-1.5
								V46.3C305.3,45.5,304.6,44.8,303.8,44.8z"/>
						</defs>
						<clipPath id="SVGID_2_">
							<use xlink:href="#SVGID_1_"  style="overflow:visible;"/>
						</clipPath>
						<g class="st6">

								<image style="overflow:visible;enable-background:new    ;" width="150%"  id="XMLID_145_" xlink:href="www/images/704E761C.jpg"  transform="matrix(0.6252 0 0 0.6252 -66.8516 43.4326)">
							</image>
						</g>
					</g>
				</g>
			</g>
		</g>
		<path id="XMLID_18_" class="st7" d="M242.6,50.1c1-1.7,1.4-3.4,1.6-5.3h-301v187.4H34C115.8,188.5,193.8,132.9,242.6,50.1z"/>
	</g>
</g>
</svg>
